<svg width="76" height="76" viewBox="0 0 76 76" fill="none" xmlns="http://www.w3.org/2000/svg">
<g clip-path="url(#clip0_1327_27)">
<path d="M38 76C58.9868 76 76 58.9868 76 38C76 17.0132 58.9868 0 38 0C17.0132 0 0 17.0132 0 38C0 58.9868 17.0132 76 38 76Z" fill="#075FE4"/>
<path d="M49.1437 30.5624C50.8207 29.7273 52.1665 28.3501 52.9625 26.6542C53.7585 24.9583 53.9582 23.0431 53.5291 21.2195C53.0999 19.3958 52.0672 17.7706 50.5984 16.6076C49.1296 15.4446 47.311 14.8121 45.4375 14.8125H30.5625C28.689 14.8121 26.8704 15.4446 25.4016 16.6076C23.9328 17.7706 22.9001 19.3958 22.471 21.2195C22.0418 23.0431 22.2415 24.9583 23.0375 26.6542C23.8336 28.3501 25.1793 29.7273 26.8564 30.5624C25.4727 31.2509 24.3086 32.3118 23.4949 33.6257C22.6811 34.9395 22.25 36.4544 22.25 37.9999C22.25 39.5453 22.6811 41.0602 23.4949 42.3741C24.3087 43.6879 25.4728 44.7488 26.8565 45.4373C25.5314 46.0977 24.4067 47.1001 23.5989 48.3408C22.791 49.5815 22.3292 51.0155 22.2613 52.4945C22.1934 53.9735 22.5218 55.4438 23.2125 56.7534C23.9033 58.0629 24.9313 59.1642 26.1903 59.9433C27.4493 60.7224 28.8935 61.151 30.3737 61.1849C31.8538 61.2188 33.3162 60.8566 34.6095 60.1359C35.9028 59.4152 36.9801 58.3621 37.73 57.0856C38.4799 55.809 38.8752 54.3552 38.875 52.8747V43.0928C39.6401 44.0793 40.6176 44.8808 41.735 45.4376C42.8524 45.9944 44.0809 46.2923 45.3293 46.3091C46.5776 46.3259 47.8137 46.0612 48.9456 45.5346C50.0776 45.008 51.0763 44.2331 51.8677 43.2675C52.659 42.3019 53.2226 41.1703 53.5165 39.957C53.8104 38.7436 53.8271 37.4796 53.5654 36.2589C53.3037 35.0382 52.7702 33.8922 52.0047 32.906C51.2392 31.9198 50.2613 31.1187 49.1437 30.5624ZM52 23.125C51.9981 24.8641 51.3066 26.5315 50.0772 27.7617C48.8479 28.9918 47.1809 29.6843 45.4418 29.6874L45.4375 29.6873L45.4291 29.6875L38.875 29.6873V16.5625H45.4375C47.1774 16.5645 48.8454 17.2565 50.0757 18.4868C51.306 19.7171 51.998 21.3851 52 23.125ZM40.3444 31.4373C39.7956 31.8643 39.302 32.3579 38.875 32.9068V31.4373L40.3444 31.4373ZM24 23.125C24.002 21.3851 24.694 19.7171 25.9243 18.4868C27.1546 17.2565 28.8226 16.5645 30.5625 16.5625H37.125V29.6873H30.5625L30.5584 29.6874C28.8192 29.6843 27.1522 28.9918 25.9229 27.7617C24.6935 26.5315 24.002 24.8641 24 23.125ZM30.5625 59.4371C29.7003 59.4378 28.8464 59.2685 28.0495 58.9391C27.2527 58.6096 26.5287 58.1263 25.9187 57.5169C25.3088 56.9074 24.8249 56.1838 24.4948 55.3872C24.1647 54.5907 23.9948 53.7369 23.9948 52.8747C23.9948 52.0124 24.1647 51.1587 24.4948 50.3621C24.8249 49.5656 25.3088 48.8419 25.9187 48.2325C26.5287 47.623 27.2527 47.1398 28.0495 46.8103C28.8464 46.4808 29.7003 46.3116 30.5625 46.3123L37.125 46.3121V52.8747C37.123 54.6145 36.431 56.2826 35.2007 57.5128C33.9704 58.7431 32.3024 59.4351 30.5625 59.4371ZM37.125 44.5621L30.5625 44.5623C28.8226 44.562 27.154 43.8708 25.9236 42.6405C24.6932 41.4103 24.0017 39.7418 24.0012 38.0019C24.0006 36.262 24.691 34.5931 25.9207 33.3621C27.1503 32.1311 28.8184 31.4388 30.5584 31.4374L30.5625 31.4375L37.125 31.4373V44.5621ZM45.4375 44.5623C43.6981 44.5617 42.0301 43.8707 40.8 42.641C39.5699 41.4112 38.8783 39.7435 38.8772 38.0041C38.8761 36.2647 39.5655 34.5961 40.7941 33.3648C42.0226 32.1335 43.6897 31.4403 45.4291 31.4375H45.4375L45.4417 31.4374C47.1811 31.4396 48.8484 32.1322 50.0774 33.3632C51.3063 34.5941 51.9964 36.2625 51.9958 38.0019C51.9953 39.7413 51.3042 41.4093 50.0744 42.6395C48.8447 43.8696 47.1769 44.5612 45.4375 44.5623Z" fill="white" stroke="white" stroke-width="0.25"/>
</g>
<defs>
<clipPath id="clip0_1327_27">
<rect width="76" height="76" fill="white"/>
</clipPath>
</defs>
</svg>
