<svg width="76" height="76" viewBox="0 0 76 76" fill="none" xmlns="http://www.w3.org/2000/svg">
<g clip-path="url(#clip0_1327_144)">
<path d="M38 76C58.9868 76 76 58.9868 76 38C76 17.0132 58.9868 0 38 0C17.0132 0 0 17.0132 0 38C0 58.9868 17.0132 76 38 76Z" fill="#075FE4"/>
<path fill-rule="evenodd" clip-rule="evenodd" d="M40.475 23.6999C39.1083 22.3331 36.8921 22.3331 35.5253 23.6999L34.3501 24.8752L37.0937 27.6187C37.3828 27.5414 37.6866 27.5002 38.0002 27.5002C39.9332 27.5002 41.5002 29.0672 41.5002 31.0002C41.5002 31.3137 41.4589 31.6176 41.3817 31.9068L44.9687 35.4937C45.2578 35.4165 45.5616 35.3752 45.8752 35.3752C47.8082 35.3752 49.3752 36.9421 49.3752 38.8752C49.3752 40.8082 47.8082 42.3752 45.8752 42.3752C43.9421 42.3752 42.3752 40.8082 42.3752 38.8752C42.3752 38.5616 42.4165 38.2578 42.4937 37.9687L39.7502 35.225V43.7185C40.7963 44.3236 41.5002 45.4547 41.5002 46.7502C41.5002 48.6832 39.9332 50.2502 38.0002 50.2502C36.0671 50.2502 34.5002 48.6832 34.5002 46.7502C34.5002 45.4547 35.204 44.3236 36.2502 43.7185V34.032C35.204 33.4268 34.5002 32.2957 34.5002 31.0002C34.5002 30.6867 34.5415 30.3827 34.6187 30.0936L31.8752 27.35L23.6999 35.5253C22.3331 36.8921 22.3331 39.1083 23.6999 40.475L35.5253 52.3005C36.8921 53.6672 39.1083 53.6672 40.475 52.3005L52.3005 40.475C53.6672 39.1083 53.6672 36.8921 52.3005 35.5253L40.475 23.6999ZM33.0504 21.225C35.7842 18.4914 40.2162 18.4914 42.9499 21.2251L54.7753 33.0504C57.509 35.7842 57.509 40.2162 54.7753 42.9499L42.9499 54.7753C40.2162 57.509 35.7842 57.509 33.0504 54.7753L21.225 42.9499C18.4914 40.2162 18.4914 35.7842 21.2251 33.0504L33.0504 21.225Z" fill="white"/>
</g>
<defs>
<clipPath id="clip0_1327_144">
<rect width="76" height="76" fill="white"/>
</clipPath>
</defs>
</svg>
