<svg width="76" height="76" viewBox="0 0 76 76" fill="none" xmlns="http://www.w3.org/2000/svg">
<circle cx="38" cy="38" r="38" fill="#075FE4"/>
<path d="M21.6419 57.8512L18 17H58L54.3536 57.8542L37.9903 62.3905L21.6419 57.8512Z" fill="white"/>
<path d="M25.4492 25.3501L26.7998 40.5015H44.1657L43.5829 47.0002L37.9915 48.512L32.4107 47.0023L32.0376 42.8297H27.0083L27.7275 50.8734L37.9902 53.7239L48.2662 50.8734L49.6437 35.4919H31.3823L30.9239 30.3609H50.0823H50.0978L50.5466 25.3501H25.4492Z" fill="#075FE4"/>
<path d="M38.0038 25.3501H25.4551L26.8057 40.5015H38.0038V35.4919H31.3881L30.9297 30.3609H38.0038V25.3501Z" fill="#075FE4"/>
<path d="M38.0032 48.5099L37.9968 48.5121L32.4161 47.0025L32.0429 42.8298H27.0137L27.7329 50.8736L37.9955 53.724L38.0032 53.7218V48.5099Z" fill="#075FE4"/>
</svg>
