<svg width="76" height="76" viewBox="0 0 76 76" fill="none" xmlns="http://www.w3.org/2000/svg">
<circle cx="38" cy="38" r="38" fill="#075FE4"/>
<path d="M12.0003 48.9707L17.8046 45.4579C18.9245 47.4433 19.9432 49.1233 22.3867 49.1233C24.7288 49.1233 26.2058 48.2072 26.2058 44.6434V20.4077H33.3336V44.7442C33.3336 52.1268 29.006 55.4873 22.6921 55.4873C16.9901 55.4873 13.6802 52.5342 12 48.9701L12.0003 48.9707ZM37.2052 48.2069L43.0089 44.8467C44.5368 47.3417 46.5225 49.1746 50.0353 49.1746C52.989 49.1746 54.8722 47.6979 54.8722 45.6612C54.8722 43.2174 52.9375 42.3516 49.6789 40.9265L47.8973 40.1621C42.7546 37.9734 39.3435 35.2239 39.3435 29.4196C39.3435 24.0734 43.4166 20 49.7811 20C54.3125 20 57.5711 21.5786 59.9129 25.7026L54.3629 29.267C53.1407 27.0777 51.8175 26.2123 49.7808 26.2123C47.6932 26.2123 46.3694 27.5361 46.3694 29.267C46.3694 31.4053 47.6932 32.2713 50.7479 33.5952L52.5298 34.3587C58.5888 36.9557 62 39.603 62 45.5596C62 51.9754 56.9596 55.4881 50.1879 55.4881C43.5691 55.4881 39.2922 52.3315 37.2049 48.2072" fill="white"/>
</svg>
