<svg width="76" height="76" viewBox="0 0 76 76" fill="none" xmlns="http://www.w3.org/2000/svg">
<g clip-path="url(#clip0_1327_100)">
<path d="M38 76C58.9868 76 76 58.9868 76 38C76 17.0132 58.9868 0 38 0C17.0132 0 0 17.0132 0 38C0 58.9868 17.0132 76 38 76Z" fill="#075FE4"/>
<path d="M45.9219 34.2775C43.9007 25.3569 39.1238 22.4238 38.6094 21.3031C38.0469 20.5125 37.4769 19.1062 37.4769 19.1062C37.4676 19.0825 37.4526 19.0406 37.4351 19C37.3769 19.7906 37.3469 20.0956 36.5994 20.8931C35.4419 21.7981 29.5032 26.7812 29.0201 36.9163C28.5694 46.3688 35.8482 52.0013 36.8326 52.7194L36.9444 52.7988V52.7919C36.9507 52.8394 37.2569 55.0419 37.4719 57.3756H38.2432C38.4241 55.726 38.6954 54.0875 39.0557 52.4675L39.1182 52.4269C39.5585 52.1112 39.9783 51.7678 40.3751 51.3988L40.4201 51.3581C42.5126 49.425 46.2744 44.9538 46.2376 37.825C46.2298 36.6358 46.1242 35.4493 45.9219 34.2775ZM37.3901 47.3825C37.3901 47.3825 37.3901 34.125 37.8276 34.1275C38.1688 34.1275 38.6107 51.2281 38.6107 51.2281C38.0032 51.155 37.3901 48.4137 37.3901 47.3825Z" fill="white"/>
</g>
<defs>
<clipPath id="clip0_1327_100">
<rect width="76" height="76" fill="white"/>
</clipPath>
</defs>
</svg>
