<svg width="76" height="76" viewBox="0 0 76 76" fill="none" xmlns="http://www.w3.org/2000/svg">
<circle cx="38" cy="38" r="38" fill="#075FE4"/>
<path d="M37.8304 66C37.0749 66.0003 36.3326 65.8016 35.6783 65.424L28.8302 61.3699C27.8082 60.7979 28.3062 60.5959 28.6442 60.4779C29.7312 60.1421 30.7719 59.6718 31.7423 59.0779C31.8235 59.0403 31.913 59.0241 32.0022 59.0307C32.0914 59.0374 32.1775 59.0667 32.2523 59.1159L37.5143 62.2419C37.6123 62.2938 37.7215 62.3209 37.8324 62.3209C37.9432 62.3209 38.0524 62.2938 38.1504 62.2419L58.6706 50.3978C58.7667 50.3402 58.8461 50.2588 58.9011 50.1613C58.9562 50.0638 58.985 49.9537 58.9846 49.8418V26.1494C58.9847 26.0357 58.9555 25.9239 58.8998 25.8248C58.8441 25.7256 58.7638 25.6425 58.6666 25.5834L38.1464 13.7493C38.0496 13.6948 37.9404 13.6661 37.8294 13.6661C37.7183 13.6661 37.6091 13.6948 37.5123 13.7493L17.0041 25.5874C16.9062 25.6453 16.825 25.7274 16.7683 25.8259C16.7115 25.9243 16.6811 26.0358 16.6801 26.1494V49.8318C16.6803 49.9435 16.7103 50.0531 16.7669 50.1494C16.8235 50.2457 16.9046 50.3252 17.0021 50.3798L22.6301 53.6278C25.6802 55.1518 27.5482 53.3558 27.5482 51.5518V28.1695C27.5482 28.0103 27.6114 27.8577 27.724 27.7452C27.8365 27.6327 27.9891 27.5695 28.1482 27.5695H30.7483C30.9074 27.5695 31.06 27.6327 31.1725 27.7452C31.285 27.8577 31.3483 28.0103 31.3483 28.1695V51.5538C31.3483 55.6239 29.1322 57.9539 25.2722 57.9539C23.6069 57.9829 21.9678 57.5376 20.5461 56.6699L15.152 53.5758C14.4972 53.1945 13.9539 52.6481 13.5762 51.9911C13.1986 51.3341 12.9999 50.5895 13 49.8318V26.1494C12.9981 25.3905 13.1959 24.6444 13.5737 23.9861C13.9514 23.3279 14.4958 22.7806 15.152 22.3994L35.6743 10.5512C36.3354 10.1896 37.0768 10 37.8304 10C38.5839 10 39.3253 10.1896 39.9864 10.5512L60.5067 22.3994C61.1614 22.78 61.7049 23.3256 62.0829 23.9819C62.4608 24.6382 62.6601 25.3821 62.6607 26.1394V49.8318C62.6596 50.5895 62.4602 51.3338 62.0823 51.9907C61.7044 52.6475 61.1612 53.194 60.5067 53.5758L39.9864 65.424C39.3308 65.8022 38.5872 66.0009 37.8304 66V66Z" fill="white"/>
<path d="M33.9395 41.9057C33.9395 41.7466 34.0027 41.594 34.1152 41.4814C34.2277 41.3689 34.3803 41.3057 34.5395 41.3057H37.1935C37.3353 41.3062 37.4724 41.3568 37.5804 41.4487C37.6884 41.5406 37.7603 41.6678 37.7835 41.8077C38.1835 44.5098 39.3835 45.8718 44.8096 45.8718C49.1317 45.8718 50.9737 44.8938 50.9737 42.5997C50.9737 41.2777 50.4517 40.2957 43.7336 39.6377C38.1175 39.0817 34.6455 37.8377 34.6455 33.3496C34.6455 29.2095 38.1355 26.7395 43.9856 26.7395C50.5597 26.7395 53.8137 29.0215 54.2257 33.9176C54.232 33.9993 54.2215 34.0815 54.1948 34.159C54.1681 34.2365 54.1258 34.3078 54.0705 34.3683C54.0153 34.4288 53.9481 34.4774 53.8734 34.511C53.7986 34.5446 53.7177 34.5625 53.6357 34.5636H50.9637C50.8296 34.5617 50.7001 34.515 50.5957 34.4309C50.4913 34.3468 50.4181 34.2302 50.3877 34.0996C49.7497 31.2576 48.1877 30.3496 43.9876 30.3496C39.2675 30.3496 38.7195 31.9936 38.7195 33.2256C38.7195 34.7176 39.3675 35.1536 45.7396 35.9956C52.0457 36.8296 55.0417 38.0097 55.0417 42.4417C55.0417 46.9138 51.3137 49.4738 44.8116 49.4738C35.8215 49.4858 33.9395 45.3638 33.9395 41.9057Z" fill="white"/>
</svg>
