<svg width="76" height="76" viewBox="0 0 76 76" fill="none" xmlns="http://www.w3.org/2000/svg">
<circle cx="38" cy="38" r="38" fill="#075FE4"/>
<path d="M37.7446 32.7387C37.0952 32.7387 36.4521 32.8666 35.8521 33.1151C35.2521 33.3636 34.7069 33.7279 34.2476 34.1871C33.7884 34.6464 33.4241 35.1916 33.1756 35.7916C32.9271 36.3916 32.7991 37.0347 32.7991 37.6841C32.7991 38.3336 32.9271 38.9767 33.1756 39.5767C33.4241 40.1767 33.7884 40.7219 34.2476 41.1811C34.7069 41.6403 35.2521 42.0046 35.8521 42.2532C36.4521 42.5017 37.0952 42.6296 37.7446 42.6296C38.3941 42.6296 39.0372 42.5017 39.6372 42.2532C40.2372 42.0046 40.7824 41.6403 41.2416 41.1811C41.7008 40.7219 42.0651 40.1767 42.3137 39.5767C42.5622 38.9767 42.6901 38.3336 42.6901 37.6841C42.6901 37.0347 42.5622 36.3916 42.3137 35.7916C42.0651 35.1916 41.7008 34.6464 41.2416 34.1871C40.7824 33.7279 40.2372 33.3636 39.6372 33.1151C39.0372 32.8666 38.3941 32.7387 37.7446 32.7387ZM23.8908 47.5219L22.7995 47.2445C14.6657 45.1891 10 41.7002 10 37.6749C10 33.6496 14.6657 30.1607 22.7995 28.1053L23.8908 27.8302L24.1983 28.9122C25.0223 31.7507 26.0762 34.5174 27.3496 37.1847L27.5832 37.6772L27.3496 38.1697C26.0741 40.8361 25.0201 43.6029 24.1983 46.4422L23.8908 47.5219ZM22.2932 30.6324C16.1108 32.3687 12.3167 35.0253 12.3167 37.6749C12.3167 40.3222 16.1108 42.9787 22.2932 44.7174C23.0493 42.3127 23.9622 39.9602 25.026 37.6749C23.961 35.3901 23.048 33.0375 22.2932 30.6324V30.6324ZM51.5984 47.5219L51.2909 46.4376C50.4678 43.5992 49.413 40.8332 48.1373 38.1674L47.9038 37.6749L48.1373 37.1824C49.4126 34.5156 50.4673 31.7489 51.2909 28.9099L51.5984 27.8279L52.692 28.103C60.8235 30.1584 65.4893 33.6473 65.4893 37.6749C65.4893 41.7025 60.8235 45.1891 52.692 47.2445L51.5984 47.5219V47.5219ZM50.4632 37.6749C51.573 40.0771 52.4909 42.4377 53.1961 44.7174C59.3808 42.9787 63.1726 40.3222 63.1726 37.6749C63.1726 35.0253 59.3785 32.371 53.1961 30.6324C52.441 33.0374 51.5281 35.39 50.4632 37.6749V37.6749ZM22.277 30.6208L21.9695 29.5411C19.6829 21.4813 20.3765 15.7058 23.8723 13.6897C27.3011 11.7105 32.8061 14.048 38.5747 19.9692L39.3608 20.7761L38.5747 21.583C36.5249 23.7138 34.6521 26.008 32.9749 28.4429L32.6627 28.8891L32.1194 28.9353C29.169 29.1679 26.2424 29.6396 23.3683 30.3457L22.277 30.6208V30.6208ZM26.6606 15.2919C26.041 15.2919 25.4931 15.426 25.0307 15.6919C22.7325 17.0167 22.3256 21.6223 23.9093 27.8371C26.3731 27.289 28.87 26.9021 31.3842 26.6788C32.8348 24.6161 34.4197 22.6513 36.1285 20.7969C32.5217 17.2849 29.1068 15.2919 26.6606 15.2919V15.2919ZM48.8309 62.3699C48.8286 62.3699 48.8286 62.3699 48.8309 62.3699C45.5362 62.3699 41.3052 59.8891 36.9146 55.3806L36.1285 54.5737L36.9146 53.7668C38.9638 51.6353 40.8358 49.3403 42.5121 46.9046L42.8242 46.4584L43.3652 46.4121C46.3171 46.1808 49.2454 45.7099 52.121 45.0041L53.2123 44.729L53.5221 45.811C55.8041 53.8662 55.1128 59.644 51.6169 61.6578C50.7678 62.1379 49.8063 62.3837 48.8309 62.3699V62.3699ZM39.3608 54.5529C42.9676 58.0649 46.3825 60.0579 48.8286 60.0579H48.8309C49.4482 60.0579 49.9985 59.9238 50.4586 59.6579C52.7568 58.3331 53.166 53.7252 51.58 47.5104C49.1155 48.0592 46.6178 48.4462 44.1028 48.6687C42.6539 50.7327 41.0697 52.6984 39.3608 54.5529V54.5529ZM53.2123 30.6208L52.121 30.3457C49.2457 29.6375 46.3174 29.1658 43.3652 28.9353L42.8242 28.8891L42.5121 28.4429C40.8367 26.0072 38.9646 23.7129 36.9146 21.583L36.1285 20.7761L36.9146 19.9692C42.6809 14.0503 48.1835 11.7128 51.6169 13.6897C55.1128 15.7058 55.8064 21.4813 53.5221 29.5388L53.2123 30.6208ZM44.1028 26.6788C46.7431 26.9192 49.2517 27.31 51.58 27.8371C53.166 21.6223 52.7568 17.0167 50.4586 15.6919C48.1743 14.3717 43.8808 16.3948 39.3608 20.7969C41.0688 22.6514 42.6529 24.6162 44.1028 26.6788V26.6788ZM26.6606 62.3699C25.6845 62.3841 24.7221 62.1383 23.8723 61.6578C20.3765 59.644 19.6829 53.8685 21.9695 45.811L22.2747 44.729L23.366 45.0041C26.0364 45.6769 28.982 46.1509 32.1171 46.4121L32.6604 46.4584L32.9702 46.9046C34.6478 49.34 36.5205 51.6349 38.57 53.7668L39.3561 54.5737L38.57 55.3806C34.1818 59.8891 29.9507 62.3699 26.6606 62.3699V62.3699ZM23.9093 47.5104C22.3232 53.7252 22.7325 58.3331 25.0307 59.6579C27.3126 60.9596 31.6038 58.9527 36.1285 54.5529C34.4204 52.6971 32.8355 50.7315 31.3842 48.6687C28.8699 48.4464 26.3729 48.0594 23.9093 47.5104V47.5104ZM37.7446 48.9623C35.8418 48.9623 33.8858 48.8791 31.9275 48.7172L31.3842 48.671L31.072 48.2248C29.9644 46.6332 28.923 44.9964 27.9508 43.3186C26.9814 41.6395 26.082 39.9209 25.2549 38.1674L25.0237 37.6749L25.2549 37.1824C26.0819 35.4288 26.9813 33.7102 27.9508 32.0312C28.908 30.3757 29.9599 28.7249 31.072 27.125L31.3842 26.6788L31.9275 26.6325C35.7994 26.3042 39.6922 26.3042 43.5641 26.6325L44.1051 26.6788L44.4149 27.125C46.6325 30.3088 48.5792 33.6731 50.2343 37.1824L50.4679 37.6749L50.2343 38.1674C48.5832 41.6787 46.6363 45.0433 44.4149 48.2248L44.1051 48.671L43.5641 48.7172C41.6058 48.8791 39.6474 48.9623 37.7446 48.9623V48.9623ZM32.6651 46.4561C36.0869 46.7127 39.4024 46.7127 42.8265 46.4561C44.7382 43.6614 46.4355 40.7259 47.9038 37.6749C46.4381 34.622 44.7399 31.6863 42.8242 28.8937C39.4427 28.6371 36.0466 28.6371 32.6651 28.8937C30.7485 31.6858 29.0503 34.6215 27.5855 37.6749C29.0554 40.7255 30.7534 43.6609 32.6651 46.4561V46.4561Z" fill="white"/>
</svg>
