<svg width="76" height="76" viewBox="0 0 76 76" fill="none" xmlns="http://www.w3.org/2000/svg">
<g clip-path="url(#clip0_1327_133)">
<path d="M38 76C58.9868 76 76 58.9868 76 38C76 17.0132 58.9868 0 38 0C17.0132 0 0 17.0132 0 38C0 58.9868 17.0132 76 38 76Z" fill="#075FE4"/>
<g clip-path="url(#clip1_1327_133)">
<path d="M46.1016 45.8312C47.6515 45.6707 48.8273 44.3346 48.7738 42.7311C48.7205 41.1277 47.3842 39.8449 45.7808 39.8449H45.674C44.017 39.8984 42.7343 41.288 42.7878 42.9448C42.8413 43.7466 43.1619 44.4414 43.6429 44.9225C41.8258 48.5036 39.0466 51.1225 34.8777 53.3139C32.045 54.8105 29.1055 55.345 26.166 54.971C23.7608 54.6502 21.8902 53.5813 20.7142 51.8173C19.004 49.1984 18.8437 46.3655 20.2868 43.5328C21.3024 41.5017 22.9056 40.0052 23.9211 39.2569C23.7074 38.5621 23.3866 37.3862 23.2263 36.5311C15.4765 42.1432 16.2783 49.7329 18.63 53.3139C20.3936 55.9865 23.9746 57.6434 27.9297 57.6434C28.9985 57.6434 30.0674 57.5364 31.1364 57.2693C37.9777 55.933 43.1621 51.8708 46.1016 45.8312ZM55.5083 39.2036C51.4462 34.4466 45.4602 31.8276 38.619 31.8276H37.7639C37.2829 30.8656 36.2673 30.2241 35.145 30.2241H35.038C33.3813 30.2776 32.0987 31.6672 32.152 33.3242C32.2055 34.9276 33.5416 36.2104 35.145 36.2104H35.2518C36.4276 36.1569 37.4432 35.4086 37.8707 34.3931H38.8328C42.8948 34.3931 46.7429 35.5689 50.2171 37.8673C52.8893 39.6311 54.8134 41.9295 55.8823 44.7087C56.7909 46.9535 56.7374 49.1449 55.7753 51.0157C54.2789 53.8484 51.767 55.3985 48.4532 55.3985C46.3153 55.3985 44.2844 54.757 43.2154 54.276C42.6275 54.8105 41.5585 55.6656 40.8102 56.2003C43.1086 57.2691 45.4602 57.8571 47.705 57.8571C52.8358 57.8571 56.6306 55.0243 58.0737 52.1916C59.6236 49.0914 59.5166 43.7466 55.5083 39.2036ZM28.3572 46.7396C28.4107 48.3432 29.7468 49.6258 31.3502 49.6258H31.4572C33.1141 49.5725 34.3967 48.1827 34.3432 46.5258C34.2899 44.9223 32.9536 43.6396 31.3502 43.6396H31.2434C31.1364 43.6396 30.976 43.6396 30.8693 43.693C28.678 40.0585 27.7694 36.1034 28.0901 31.8275C28.3037 28.6205 29.3728 25.8412 31.2434 23.5428C32.7933 21.5652 35.7863 20.6031 37.8174 20.5498C43.4826 20.4429 45.8876 27.498 46.0481 30.3309C46.7429 30.4912 47.9187 30.8654 48.7205 31.1327C48.079 22.4741 42.7343 17.9844 37.6036 17.9844C32.7933 17.9844 28.3572 21.4586 26.5934 26.5896C24.1349 33.431 25.7383 40.0052 28.7313 45.1897C28.4642 45.5638 28.3037 46.1516 28.3572 46.7396Z" fill="white"/>
</g>
</g>
<defs>
<clipPath id="clip0_1327_133">
<rect width="76" height="76" fill="white"/>
</clipPath>
<clipPath id="clip1_1327_133">
<rect width="42" height="42" fill="white" transform="translate(17 17)"/>
</clipPath>
</defs>
</svg>
