<svg width="76" height="76" viewBox="0 0 76 76" fill="none" xmlns="http://www.w3.org/2000/svg">
<g clip-path="url(#clip0_1327_121)">
<path d="M38 76C58.9868 76 76 58.9868 76 38C76 17.0132 58.9868 0 38 0C17.0132 0 0 17.0132 0 38C0 58.9868 17.0132 76 38 76Z" fill="#075FE4"/>
<path d="M53.654 22.4861C55.3566 22.8821 56.9036 23.7736 58.1 25.0481C58.759 25.7378 59.3313 26.5055 59.804 27.3341C59.826 27.4241 56.736 29.5001 54.862 30.6581C54.794 30.7041 54.524 30.4101 54.218 29.9581C53.8757 29.3696 53.3898 28.8775 52.8057 28.5278C52.2216 28.178 51.5584 27.982 50.878 27.9581C48.724 27.8101 47.336 28.9381 47.346 30.8241C47.3274 31.2874 47.4331 31.7473 47.652 32.1561C48.126 33.1361 49.006 33.7241 51.77 34.9221C56.858 37.1121 59.042 38.5561 60.39 40.6081C61.152 41.9046 61.6212 43.352 61.765 44.849C61.9087 46.346 61.7234 47.8563 61.222 49.2741C60.533 50.8289 59.4403 52.171 58.0575 53.161C56.6746 54.1511 55.052 54.7529 53.358 54.9041C51.5574 55.1106 49.738 55.0918 47.942 54.8481C45.191 54.396 42.6568 53.0757 40.71 51.0801C39.9744 50.2518 39.3517 49.3298 38.858 48.3381C39.0656 48.1837 39.2842 48.0446 39.512 47.9221C39.828 47.7421 41.024 47.0541 42.152 46.4001L44.2 45.2001L44.628 45.8241C45.3489 46.855 46.2665 47.7331 47.328 48.4081C48.4001 48.9961 49.6144 49.2748 50.8356 49.213C52.0568 49.1512 53.2368 48.7513 54.244 48.0581C54.7636 47.5517 55.0884 46.8786 55.1615 46.1568C55.2346 45.4349 55.0514 44.7104 54.644 44.1101C54.092 43.3201 52.964 42.6561 49.758 41.2661C47.2441 40.4184 44.9544 39.0134 43.06 37.1561C42.1579 36.128 41.4916 34.915 41.108 33.6021C40.8244 32.1064 40.7825 30.575 40.984 29.0661C41.3604 27.3297 42.2614 25.7511 43.5651 24.5441C44.8687 23.337 46.5119 22.5599 48.272 22.3181C50.0643 22.1039 51.8786 22.1605 53.654 22.4861ZM36.968 25.4521L36.99 28.3601H27.73V54.6561H21.2V28.3661H11.94V25.5101C11.9154 24.532 11.9421 23.5533 12.02 22.5781C12.054 22.5321 17.684 22.5101 24.51 22.5221L36.932 22.5561L36.968 25.4521Z" fill="white"/>
</g>
<defs>
<clipPath id="clip0_1327_121">
<rect width="76" height="76" fill="white"/>
</clipPath>
</defs>
</svg>
