<svg width="76" height="76" viewBox="0 0 76 76" fill="none" xmlns="http://www.w3.org/2000/svg">
<g clip-path="url(#clip0_1327_169)">
<path d="M38 76C58.9868 76 76 58.9868 76 38C76 17.0132 58.9868 0 38 0C17.0132 0 0 17.0132 0 38C0 58.9868 17.0132 76 38 76Z" fill="#075FE4"/>
<g clip-path="url(#clip1_1327_169)">
<path d="M21.3235 32.8562C21.3235 32.8562 20.4954 32.2529 21.4891 31.4472L23.8044 29.3545C23.8044 29.3545 24.4669 28.65 25.1673 29.2638L46.5327 45.6145V53.4549C46.5327 53.4549 46.5224 54.6861 44.9592 54.5501L21.3235 32.8562Z" fill="white"/>
<path d="M26.8303 37.9102L21.3233 42.9708C21.3233 42.9708 20.7574 43.3963 21.3233 44.1567L23.8801 46.5073C23.8801 46.5073 24.4874 47.1665 25.3845 46.4167L31.2227 41.942L26.8303 37.9102Z" fill="white"/>
<path d="M36.4985 37.9522L46.598 30.157L46.5324 22.3583C46.5324 22.3583 46.1011 20.6562 44.6623 21.5421L31.2227 33.9064L36.4985 37.9522Z" fill="white"/>
<path d="M44.9588 54.5608C45.5453 55.1676 46.2561 54.9688 46.2561 54.9688L54.127 51.0486C55.1347 50.3545 54.9932 49.493 54.9932 49.493V26.083C54.9932 25.0541 53.9511 24.6984 53.9511 24.6984L47.1291 21.3745C45.6385 20.4433 44.6621 21.5419 44.6621 21.5419C44.6621 21.5419 45.918 20.6281 46.5323 22.3581V53.3122C46.5323 53.525 46.4873 53.7342 46.3977 53.9225C46.2182 54.2887 45.8283 54.6305 44.8932 54.4876L44.9588 54.5608Z" fill="white"/>
</g>
</g>
<defs>
<clipPath id="clip0_1327_169">
<rect width="76" height="76" fill="white"/>
</clipPath>
<clipPath id="clip1_1327_169">
<rect width="34" height="34" fill="white" transform="translate(21 21)"/>
</clipPath>
</defs>
</svg>
